<svg width="16" height="18" viewBox="0 0 16 18" fill="none" xmlns="http://www.w3.org/2000/svg">
<path d="M12.2387 4.83337C13.2919 4.83337 14.3966 5.59141 14.787 7.43343L15.4277 12.5957C15.8991 15.9613 14.0063 17.3334 11.4654 17.3334H4.55711C2.00885 17.3334 0.0571469 16.3858 0.58742 12.5957L1.23553 7.43343C1.56695 5.53835 2.70851 4.83337 3.77643 4.83337H12.2387ZM5.58083 7.60778C5.17408 7.60778 4.84434 7.94717 4.84434 8.36582C4.84434 8.78447 5.17408 9.12385 5.58083 9.12385C5.98758 9.12385 6.31732 8.78447 6.31732 8.36582L6.31158 8.27073C6.26614 7.89696 5.95629 7.60778 5.58083 7.60778ZM10.4048 7.60778C9.9981 7.60778 9.66836 7.94717 9.66836 8.36582C9.66836 8.78447 9.9981 9.12385 10.4048 9.12385C10.8116 9.12385 11.1413 8.78447 11.1413 8.36582C11.1413 7.94717 10.8116 7.60778 10.4048 7.60778Z" fill="#F7F8F8"/>
<path d="M12.1449 4.64523C12.1475 4.70987 12.1351 4.77423 12.1086 4.83329H10.911C10.8878 4.77325 10.8755 4.70957 10.8747 4.64523C10.8747 3.04731 9.57486 1.75195 7.97144 1.75195C6.36801 1.75195 5.06818 3.04731 5.06818 4.64523C5.07917 4.70744 5.07917 4.77108 5.06818 4.83329H3.84155C3.83057 4.77108 3.83057 4.70744 3.84155 4.64523C3.93475 2.42155 5.77081 0.666626 8.0041 0.666626C10.2374 0.666626 12.0735 2.42155 12.1666 4.64523H12.1449Z" fill="#F7F8F8"/>
</svg>
