<svg width="20" height="20" viewBox="0 0 20 20" fill="none" xmlns="http://www.w3.org/2000/svg">
<path d="M9.65518 4.25211e-05C12.1974 4.25211e-05 14.2891 1.91929 14.5467 4.38099L14.6183 4.38196C16.3613 4.38196 17.8195 5.69437 18.3231 7.98171L19.1086 14.0483C19.5575 17.8703 17.371 20 13.7127 20H5.61542C1.65953 20 -0.361778 18.1106 0.285894 13.8124L1.04678 7.94236C1.46725 5.68312 2.96392 4.38196 4.74532 4.38196C4.8639 3.26852 5.36264 2.22318 6.1671 1.4261C7.09394 0.507775 8.35025 -0.00537867 9.65518 4.25211e-05ZM14.6183 5.82969H4.74532C3.6806 5.82969 2.77281 6.6189 2.48364 8.16663L1.72688 14.0122C1.22085 17.3711 2.48442 18.5523 5.61542 18.5523H13.7127C16.6042 18.5523 18.0772 17.0658 17.6347 13.9973L16.8911 8.22993C16.5386 6.63797 15.6405 5.82969 14.6183 5.82969ZM12.5318 8.51644C12.9336 8.51644 13.2593 8.84053 13.2593 9.24031C13.2593 9.60677 12.9857 9.90963 12.6306 9.95756L12.5318 9.96417H12.4875C12.0857 9.96417 11.76 9.64009 11.76 9.24031C11.76 8.87384 12.0337 8.57098 12.3887 8.52305L12.4875 8.51644H12.5318ZM6.87618 8.51644C7.27796 8.51644 7.60367 8.84053 7.60367 9.24031C7.60367 9.60677 7.32999 9.90963 6.9749 9.95756L6.87618 9.96417H6.83179C6.43001 9.96417 6.1043 9.64009 6.1043 9.24031C6.1043 8.87384 6.37798 8.57098 6.73307 8.52305L6.83179 8.51644H6.87618ZM9.65212 1.44781C8.73106 1.44396 7.8464 1.80531 7.19375 2.45197C6.66406 2.97679 6.32261 3.65446 6.21274 4.38112L13.0804 4.38142C12.8316 2.72127 11.3926 1.44782 9.65212 1.44781Z" fill="#200E32"/>
</svg>
