<svg width="22" height="22" viewBox="0 0 22 22" fill="none" xmlns="http://www.w3.org/2000/svg">
<path d="M9.62499 3.4375C9.62499 1.54687 8.07812 0 6.1875 0H3.4375C1.54687 0 0 1.54687 0 3.4375V6.1875C0 8.07812 1.54687 9.62499 3.4375 9.62499H6.1875C8.07812 9.62499 9.62499 8.07812 9.62499 6.1875V3.4375ZM8.24999 6.1875C8.24999 7.32187 7.32187 8.24999 6.1875 8.24999H3.4375C2.30312 8.24999 1.375 7.32187 1.375 6.1875V3.4375C1.375 2.30312 2.30312 1.375 3.4375 1.375H6.1875C7.32187 1.375 8.24999 2.30312 8.24999 3.4375V6.1875Z" fill="black"/>
<path d="M22 3.4375C22 1.54687 20.4531 0 18.5625 0H15.8125C13.9219 0 12.375 1.54687 12.375 3.4375V6.1875C12.375 8.07812 13.9219 9.62499 15.8125 9.62499H18.5625C20.4531 9.62499 22 8.07812 22 6.1875V3.4375ZM20.625 6.1875C20.625 7.32187 19.6969 8.24999 18.5625 8.24999H15.8125C14.6782 8.24999 13.75 7.32187 13.75 6.1875V3.4375C13.75 2.30312 14.6782 1.375 15.8125 1.375H18.5625C19.6969 1.375 20.625 2.30312 20.625 3.4375V6.1875Z" fill="black"/>
<path d="M6.18751 12.375H3.43751C1.54689 12.375 1.52588e-05 13.9219 1.52588e-05 15.8125V18.5625C1.52588e-05 20.4531 1.54689 22 3.43751 22H6.18751C8.07813 22 9.62501 20.4531 9.62501 18.5625V15.8125C9.62501 13.9219 8.07813 12.375 6.18751 12.375ZM8.25001 18.5625C8.25001 19.6969 7.32189 20.625 6.18751 20.625H3.43751C2.30314 20.625 1.37501 19.6969 1.37501 18.5625V15.8125C1.37501 14.6781 2.30314 13.75 3.43751 13.75H6.18751C7.32189 13.75 8.25001 14.6781 8.25001 15.8125V18.5625Z" fill="black"/>
<path d="M18.5625 12.375H15.8125C13.9219 12.375 12.375 13.9219 12.375 15.8125V18.5625C12.375 20.4531 13.9219 22 15.8125 22H18.5625C20.4531 22 22 20.4531 22 18.5625V15.8125C22 13.9219 20.4531 12.375 18.5625 12.375ZM20.625 18.5625C20.625 19.6969 19.6969 20.625 18.5625 20.625H15.8125C14.6782 20.625 13.75 19.6969 13.75 18.5625V15.8125C13.75 14.6781 14.6782 13.75 15.8125 13.75H18.5625C19.6969 13.75 20.625 14.6781 20.625 15.8125V18.5625Z" fill="black"/>
</svg>
