<svg width="20" height="17" viewBox="0 0 20 17" fill="none" xmlns="http://www.w3.org/2000/svg">
<path d="M6.47085 0.896484C5.7165 0.897175 4.98454 1.15291 4.39389 1.62215C3.80324 2.09139 3.38861 2.74655 3.21735 3.48121H0.768188C0.564452 3.48121 0.36906 3.56215 0.224997 3.70621C0.0809339 3.85027 0 4.04566 0 4.2494C0 4.45314 0.0809339 4.64853 0.224997 4.79259C0.36906 4.93665 0.564452 5.01759 0.768188 5.01759H3.21735C3.39114 5.74983 3.80686 6.40205 4.39727 6.86874C4.98769 7.33542 5.71827 7.5893 6.47085 7.5893C7.22344 7.5893 7.95402 7.33542 8.54444 6.86874C9.13485 6.40205 9.55057 5.74983 9.72436 5.01759H19.2318C19.4355 5.01759 19.6309 4.93665 19.775 4.79259C19.9191 4.64853 20 4.45314 20 4.2494C20 4.04566 19.9191 3.85027 19.775 3.70621C19.6309 3.56215 19.4355 3.48121 19.2318 3.48121H9.72436C9.5531 2.74655 9.13846 2.09139 8.54781 1.62215C7.95717 1.15291 7.22521 0.897175 6.47085 0.896484V0.896484ZM6.47085 6.06594C6.11336 6.06594 5.7639 5.95993 5.46666 5.76132C5.16942 5.56271 4.93775 5.28042 4.80094 4.95014C4.66414 4.61986 4.62834 4.25643 4.69808 3.90581C4.76783 3.55519 4.93997 3.23312 5.19276 2.98034C5.44554 2.72756 5.76761 2.55541 6.11823 2.48567C6.46885 2.41592 6.83228 2.45172 7.16256 2.58852C7.49283 2.72533 7.77513 2.957 7.97374 3.25424C8.17235 3.55149 8.27836 3.90095 8.27836 4.25844C8.27836 4.73782 8.08792 5.19756 7.74895 5.53653C7.40998 5.87551 6.95023 6.06594 6.47085 6.06594Z" fill="#333333"/>
<path d="M13.5563 10.3976C12.8019 10.3983 12.0699 10.654 11.4793 11.1232C10.8886 11.5925 10.474 12.2477 10.3028 12.9823H0.768188C0.564452 12.9823 0.36906 13.0632 0.224997 13.2073C0.0809339 13.3514 0 13.5468 0 13.7505C0 13.9542 0.0809339 14.1496 0.224997 14.2937C0.36906 14.4378 0.564452 14.5187 0.768188 14.5187H10.2756C10.4494 15.2509 10.8652 15.9031 11.4556 16.3698C12.046 16.8365 12.7766 17.0904 13.5291 17.0904C14.2817 17.0904 15.0123 16.8365 15.6027 16.3698C16.1931 15.9031 16.6089 15.2509 16.7826 14.5187H19.2318C19.4355 14.5187 19.6309 14.4378 19.775 14.2937C19.9191 14.1496 20 13.9542 20 13.7505C20 13.5468 19.9191 13.3514 19.775 13.2073C19.6309 13.0632 19.4355 12.9823 19.2318 12.9823H16.7826C16.6125 12.2522 16.2019 11.6004 15.6167 11.1316C15.0316 10.6629 14.306 10.4044 13.5563 10.3976ZM13.5563 15.549C13.1988 15.549 12.8493 15.443 12.5521 15.2443C12.2548 15.0457 12.0232 14.7634 11.8863 14.4332C11.7495 14.1029 11.7137 13.7395 11.7835 13.3888C11.8532 13.0382 12.0254 12.7161 12.2782 12.4634C12.5309 12.2106 12.853 12.0384 13.2036 11.9687C13.5543 11.8989 13.9177 11.9347 14.248 12.0715C14.5782 12.2084 14.8605 12.44 15.0591 12.7373C15.2578 13.0345 15.3638 13.384 15.3638 13.7415C15.3638 14.2208 15.1733 14.6806 14.8344 15.0196C14.4954 15.3585 14.0356 15.549 13.5563 15.549Z" fill="#333333"/>
</svg>
