<svg width="21" height="20" viewBox="0 0 21 20" fill="none" xmlns="http://www.w3.org/2000/svg">
<path d="M4.81645 0.815291C6.57374 0.250031 8.47528 0.45344 10.0663 1.35623L10.3297 1.51429L10.5979 1.35535C12.1063 0.501301 13.8957 0.273087 15.5796 0.736231L15.8453 0.81535C19.518 1.9978 21.1625 6.00801 19.927 9.84516C19.3076 11.6301 18.2917 13.2485 16.9508 14.5824C15.1261 16.3545 13.1145 17.9194 10.9552 19.2473L10.7259 19.3897C10.4931 19.5344 10.199 19.5369 9.96378 19.3961L9.71822 19.2491C7.55588 17.9194 5.54436 16.3545 3.71338 14.5762C2.37869 13.2485 1.36281 11.6301 0.738163 9.82952C-0.492792 6.00569 1.14486 1.99738 4.81645 0.815291ZM9.70799 2.85427C8.40391 1.96289 6.76665 1.72339 5.26488 2.20646C2.4208 3.12212 1.13142 6.27801 2.12541 9.36635C2.67211 10.9417 3.56839 12.3696 4.73916 13.5343C6.48709 15.2319 8.41383 16.7308 10.4774 17.9998L10.3346 17.9098L10.8025 17.6156C12.4359 16.561 13.9744 15.3642 15.397 14.0421L15.925 13.5405C17.102 12.3696 17.9983 10.9417 18.5398 9.38199C19.538 6.28096 18.243 3.12284 15.3974 2.20669C13.8206 1.70082 12.0994 1.99057 10.7693 2.98625C10.514 3.17742 10.1641 3.18111 9.90472 2.99538L9.70799 2.85427ZM14.2036 4.48374C15.525 4.90551 16.4621 6.08859 16.5791 7.47853C16.6129 7.8807 16.314 8.23413 15.9115 8.26794C15.509 8.30175 15.1553 8.00313 15.1215 7.60096C15.0539 6.79803 14.5148 6.11735 13.7585 5.87597C13.3737 5.75316 13.1615 5.34194 13.2844 4.95749C13.4073 4.57304 13.8188 4.36093 14.2036 4.48374Z" fill="#200E32"/>
</svg>
