<svg width="12" height="13" viewBox="0 0 12 13" fill="none" xmlns="http://www.w3.org/2000/svg">
<path d="M11.9935 6.49995C11.993 6.3297 11.9565 6.16147 11.8864 6.00635C11.8162 5.85122 11.714 5.71272 11.5865 5.59995L5.99698 0.680448C5.8526 0.562253 5.66796 0.504727 5.482 0.519994C5.29603 0.535261 5.12325 0.622128 5.00007 0.762289C4.8769 0.902449 4.81295 1.08496 4.8217 1.27134C4.83045 1.45773 4.91122 1.63344 5.04698 1.76145L9.36548 5.56145C9.38442 5.57825 9.39781 5.60041 9.40388 5.62499C9.40995 5.64957 9.40841 5.67542 9.39946 5.6991C9.39052 5.72279 9.37459 5.7432 9.35379 5.75764C9.33299 5.77208 9.3083 5.77986 9.28298 5.77995H0.725981C0.535026 5.77995 0.351891 5.85581 0.216865 5.99083C0.0818384 6.12586 0.00598145 6.30899 0.00598145 6.49995C0.00598145 6.6909 0.0818384 6.87404 0.216865 7.00907C0.351891 7.14409 0.535026 7.21995 0.725981 7.21995H9.28148C9.30679 7.22019 9.33143 7.22808 9.35218 7.24258C9.37292 7.25708 9.38879 7.27752 9.39772 7.3012C9.40664 7.32488 9.40819 7.35071 9.40217 7.3753C9.39615 7.39988 9.38284 7.42207 9.36398 7.43895L5.04548 11.2389C4.96996 11.3 4.90755 11.3756 4.86201 11.4613C4.81647 11.5471 4.78874 11.6411 4.78049 11.7379C4.77224 11.8346 4.78364 11.932 4.814 12.0242C4.84437 12.1164 4.89306 12.2016 4.95717 12.2745C5.02127 12.3474 5.09946 12.4066 5.18703 12.4485C5.2746 12.4904 5.36974 12.5142 5.46673 12.5184C5.56373 12.5226 5.66057 12.5071 5.75143 12.4729C5.8423 12.4388 5.92531 12.3865 5.99548 12.3194L11.586 7.39995C11.7137 7.28727 11.816 7.14879 11.8863 6.99365C11.9565 6.83851 11.993 6.67025 11.9935 6.49995Z" fill="white"/>
</svg>
